<svg xmlns="http://www.w3.org/2000/svg" viewBox="0 0 354.29 568.17"><g id="Layer_2" data-name="Layer 2"><g id="Layer_1-2" data-name="Layer 1"><path d="M354.29,339.93c-.39,19.57-5.93,33-13.94,45.69-13.26,21-31.21,37.56-49.52,53.89C252.16,474,213,507.85,171.07,538.38c-11,8-22.34,15.7-33.85,23-4.39,2.8-9.66,4.27-14.62,6.09s-9.17-.27-12.56-3.84-4.16-8.18-1.83-12c4.73-7.72,9.74-15.44,15.77-22.15,19.57-21.78,40-42.8,59.41-64.7,14.22-16,28.42-32.25,40.73-49.72,9.08-12.89,16.35-27.45,22.13-42.17,6.88-17.51,4.65-35.79-.68-53.71-5.86-19.73-16.14-37.23-27-54.41-10.71-17-21.61-33.8-32.92-50.35-9.28-13.56-19.61-26.4-28.82-40a73.78,73.78,0,0,1-9.54-19.81c-2.68-8.88,1.4-16.24,8.52-21.8,6.63-5.18,14-5,20.51-.58a351.56,351.56,0,0,1,28.31,21.18c29.35,24.39,55.05,52.53,81.3,80.09,6.4,6.73,13.75,12.68,19.38,20,15.87,20.56,33.8,39.9,43.06,64.79C351.45,326.57,353.08,335.39,354.29,339.93Z"/><path d="M173.15,450.22c-2-1-6.64-2.17-9.84-5-16.84-14.81-34-29.34-49.75-45.26C94.64,380.85,77,360.44,58.87,340.54c-17.59-19.29-33.66-39.72-46.18-62.74C6.4,266.22,1.4,254.16.25,240.83c-1.4-16.25,3.24-31,10.79-45.15,11.78-22.06,28.77-39.89,46.37-57.2,18-17.76,36.08-35.55,54.45-53,28.17-26.7,57.46-52.14,88.89-75A74,74,0,0,1,218.11,1C228.35-2.84,237.77,5,235.42,15.74A47.25,47.25,0,0,1,226.93,34c-9.43,12.23-20,23.56-29.88,35.48C184.33,84.81,171.62,100.21,159.4,116c-13.32,17.2-26.86,34.31-38.83,52.43-11.26,17.05-20.22,35.55-22.65,56.37-2.69,23,3.12,44.57,12.94,65C130,329.51,154.43,366,179.24,402.29c5.4,7.89,11.19,15.6,13,25.37A19.06,19.06,0,0,1,173.15,450.22Z"/></g></g></svg>